<?xml version="1.0" encoding="UTF-8" ?>
<!DOCTYPE svg PUBLIC "-//W3C//DTD SVG 1.1//EN" "http://www.w3.org/Graphics/SVG/1.1/DTD/svg11.dtd">
<svg width="512pt" height="438pt" viewBox="0 0 512 438" version="1.1" xmlns="http://www.w3.org/2000/svg">
<g id="#ffffffff">
<path fill="#ffffff" opacity="1.00" d=" M 0.00 0.00 L 250.40 0.00 C 230.81 1.57 211.98 11.35 199.81 26.84 C 189.33 39.73 183.95 56.33 184.10 72.88 C 178.16 71.39 172.22 69.64 166.07 69.29 C 147.13 68.17 127.80 74.91 113.89 87.87 C 99.73 100.54 91.24 119.06 90.38 137.99 C 89.75 153.48 94.22 169.20 103.09 181.94 C 112.08 195.00 125.59 204.62 140.65 209.46 C 130.54 223.46 125.10 241.06 126.90 258.34 C 128.45 274.84 135.93 290.68 147.57 302.46 C 157.29 312.12 169.73 319.19 183.22 321.93 C 201.01 325.87 220.41 322.71 235.77 312.79 C 244.11 307.72 250.88 300.52 256.85 292.89 C 266.88 306.61 281.28 317.54 298.00 321.44 C 315.94 325.99 335.74 323.18 351.60 313.60 C 373.61 300.82 388.00 275.54 386.73 249.98 C 387.03 235.22 381.00 221.22 373.00 209.12 C 376.78 207.17 380.83 205.78 384.56 203.70 C 401.48 194.38 414.51 177.96 419.14 159.14 C 422.42 147.04 422.32 134.05 418.89 121.99 C 413.39 100.68 397.11 82.74 376.85 74.39 C 366.72 70.51 355.75 68.49 344.90 69.36 C 339.03 69.83 333.35 71.47 327.67 72.90 C 328.09 56.12 322.37 39.31 311.69 26.37 C 299.55 11.15 280.95 1.59 261.59 0.00 L 512.00 0.00 L 512.00 241.05 C 504.45 236.87 495.38 236.63 487.12 238.46 C 477.09 240.69 467.50 244.78 458.96 250.49 C 459.93 244.72 460.95 238.67 458.89 233.01 C 452.55 233.86 449.60 240.30 445.52 244.41 C 442.22 236.25 435.54 230.24 428.21 225.71 C 436.77 237.92 437.61 253.70 435.59 268.02 C 434.96 271.40 434.86 275.10 432.81 278.01 C 430.70 278.08 429.58 276.05 428.22 274.80 C 424.83 270.99 420.83 267.79 416.57 265.01 C 419.18 272.53 421.81 280.12 422.79 288.05 C 424.43 298.49 423.49 309.09 421.84 319.46 C 425.72 316.86 430.27 315.72 434.69 314.43 C 436.07 314.26 436.25 312.67 436.56 311.61 C 437.99 303.34 435.27 295.19 434.16 287.07 C 437.90 285.47 441.90 284.60 445.75 283.28 C 444.05 284.97 442.41 286.73 440.84 288.54 C 443.15 289.78 445.47 291.01 447.81 292.19 C 450.08 290.97 452.36 289.42 455.04 289.38 C 458.16 288.91 461.98 290.07 464.34 287.36 C 474.94 277.62 486.98 269.36 500.23 263.67 C 481.53 264.94 462.74 270.62 447.54 281.83 C 448.95 277.79 450.43 273.78 452.06 269.83 C 454.77 269.63 457.48 269.42 460.19 269.20 C 473.60 254.49 492.01 243.49 512.00 241.35 L 512.00 438.00 L 0.00 438.00 L 0.00 241.19 C 18.96 243.66 36.70 253.38 49.76 267.23 C 52.21 270.25 56.47 269.37 59.90 269.92 C 61.42 273.86 62.95 277.81 64.40 281.79 C 50.87 271.93 34.56 266.29 18.02 264.28 C 15.79 263.97 13.58 263.47 11.39 262.96 C 11.49 263.37 11.61 263.78 11.73 264.20 C 14.23 264.96 16.68 265.88 19.00 267.09 C 29.90 272.84 39.97 280.13 48.90 288.62 C 54.15 288.68 59.66 289.10 64.11 292.21 C 66.52 290.96 68.89 289.64 71.23 288.25 C 69.54 286.59 67.84 284.94 66.13 283.31 C 70.05 284.54 73.99 285.73 77.93 286.91 C 76.42 295.70 73.03 305.11 76.11 313.89 C 80.69 315.84 85.90 316.49 90.08 319.46 C 88.06 307.36 87.47 294.87 89.99 282.80 C 91.13 276.66 93.38 270.81 95.40 264.93 C 91.56 267.49 87.83 270.26 84.70 273.68 C 83.02 275.56 81.18 277.32 79.00 278.63 C 76.42 272.40 75.79 265.59 75.40 258.92 C 74.86 247.42 76.95 235.43 83.64 225.83 C 76.17 230.29 69.52 236.47 66.23 244.69 C 63.57 241.09 60.86 237.44 57.39 234.57 C 56.14 233.37 54.31 233.51 52.72 233.23 C 51.22 238.91 51.86 244.79 52.92 250.48 C 43.57 244.30 33.02 239.86 21.96 237.94 C 14.55 236.63 6.79 237.54 0.01 240.86 L 0.00 240.04 L 0.00 0.00 M 42.60 125.57 C 40.84 128.40 38.26 131.51 39.20 135.07 C 41.33 136.38 44.02 133.97 46.37 134.83 C 48.03 135.43 49.63 136.17 51.26 136.82 C 53.66 130.70 52.86 123.85 51.04 117.69 C 47.18 118.91 44.98 122.56 42.60 125.57 M 460.87 117.64 C 459.06 123.81 458.08 130.77 460.72 136.85 C 462.55 136.12 464.33 135.21 466.24 134.66 C 468.38 134.65 470.42 135.38 472.52 135.75 C 473.85 131.48 470.80 127.75 468.50 124.49 C 466.33 121.86 464.26 118.76 460.87 117.64 M 22.70 134.04 C 21.97 142.96 26.58 152.49 34.72 156.62 C 33.87 152.85 34.97 149.18 36.58 145.80 C 30.96 143.14 27.34 137.95 22.70 134.04 M 52.17 143.46 C 54.01 145.93 54.99 148.87 54.36 151.96 C 53.43 154.23 56.39 154.98 57.92 153.89 C 64.74 150.64 67.26 142.27 66.56 135.21 C 60.84 136.00 57.69 141.93 52.17 143.46 M 445.48 135.13 C 444.80 139.80 445.73 144.68 448.24 148.68 C 450.24 151.86 453.47 154.62 457.45 154.42 C 457.39 150.63 456.80 146.43 459.78 143.50 C 454.33 141.83 451.06 136.32 445.48 135.13 M 475.26 145.80 C 476.83 149.18 478.67 153.12 476.57 156.71 C 485.27 153.09 489.78 143.10 489.23 134.07 C 484.60 138.02 480.94 143.19 475.26 145.80 M 41.65 143.85 C 39.40 147.60 36.72 152.32 38.55 156.73 C 40.57 155.51 42.53 153.73 45.04 153.77 C 47.69 154.02 49.34 156.35 51.32 157.83 C 51.62 152.85 50.02 147.84 47.33 143.69 C 46.27 141.52 42.62 141.70 41.65 143.85 M 464.68 143.52 C 462.01 147.76 460.18 152.80 460.64 157.87 C 462.61 156.35 464.27 154.00 466.93 153.72 C 469.40 153.83 471.35 155.48 473.34 156.73 C 475.21 151.61 471.90 146.50 469.26 142.29 C 467.70 142.47 465.50 141.73 464.68 143.52 M 53.17 162.65 C 56.91 166.68 55.55 172.38 55.80 177.34 C 59.18 176.54 60.89 173.29 62.61 170.60 C 65.60 165.24 67.85 159.08 67.14 152.86 C 62.15 155.67 59.33 161.94 53.17 162.65 M 444.91 152.88 C 443.79 158.86 446.37 164.79 448.96 170.05 C 450.83 172.86 452.46 176.92 456.35 177.15 C 455.91 172.20 455.15 166.53 458.82 162.53 C 452.62 162.14 449.87 155.67 444.91 152.88 M 20.44 155.69 C 19.20 164.78 24.33 174.68 33.49 177.22 C 33.54 173.64 34.57 170.21 35.64 166.83 C 33.37 166.09 31.08 165.30 29.11 163.92 C 25.78 161.65 23.69 158.05 20.44 155.69 M 476.26 166.84 C 477.31 170.23 478.46 173.65 478.49 177.24 C 487.65 174.57 492.84 164.54 491.41 155.39 C 487.01 159.99 482.89 165.48 476.26 166.84 M 38.11 176.04 C 40.73 174.91 43.40 173.04 46.40 173.70 C 48.61 174.54 50.26 176.35 52.18 177.68 C 51.43 170.83 50.21 163.09 44.99 158.13 C 39.95 162.40 37.89 169.61 38.11 176.04 M 459.87 177.76 C 461.79 176.28 463.47 174.22 465.93 173.61 C 468.78 173.18 471.26 174.98 473.79 175.98 C 473.85 169.58 471.95 162.42 466.98 158.08 C 461.73 163.05 460.34 170.85 459.87 177.76 M 66.31 172.17 C 64.48 176.85 61.32 181.28 56.16 182.53 C 56.94 184.29 57.78 186.04 58.23 187.91 C 58.71 190.57 57.94 193.56 59.77 195.84 C 61.38 194.87 63.26 194.09 64.30 192.43 C 68.24 186.58 68.36 179.08 67.32 172.34 C 67.07 172.30 66.56 172.21 66.31 172.17 M 444.59 171.81 C 443.71 177.56 443.51 183.68 445.84 189.13 C 446.93 192.21 449.17 194.75 452.30 195.84 C 454.06 191.56 453.02 186.56 455.76 182.55 C 453.19 181.57 450.53 180.41 448.87 178.11 C 447.16 176.19 446.86 173.22 444.59 171.81 M 18.41 176.39 C 16.63 187.10 25.78 199.13 36.92 198.77 C 34.67 194.80 33.46 190.13 35.76 185.87 C 28.75 185.33 24.28 179.41 18.41 176.39 M 476.16 185.85 C 476.92 188.15 478.02 190.55 477.41 193.02 C 476.73 195.01 475.78 196.87 474.96 198.80 C 484.86 199.12 493.29 189.47 493.72 179.94 C 493.71 178.82 494.26 176.28 492.25 176.97 C 487.08 180.23 482.66 185.35 476.16 185.85 M 44.36 178.46 C 40.48 182.57 39.97 188.72 40.79 194.06 C 41.17 195.52 41.20 197.47 42.86 198.12 C 43.96 195.80 44.91 192.41 47.98 192.19 C 50.32 192.84 52.19 194.65 54.68 194.91 C 55.01 190.09 53.09 185.45 50.38 181.57 C 49.00 179.70 46.85 177.91 44.36 178.46 M 463.00 179.94 C 459.18 183.88 456.83 189.47 457.26 195.00 C 459.67 194.54 461.60 192.87 463.95 192.24 C 467.04 192.42 467.94 196.04 469.26 198.27 C 470.42 197.25 470.81 195.76 471.11 194.31 C 472.01 189.29 471.60 183.70 468.45 179.50 C 467.24 177.42 464.30 178.55 463.00 179.94 M 66.59 196.44 C 65.30 199.43 63.28 202.03 60.81 204.14 C 62.23 207.47 63.08 211.00 63.03 214.64 C 65.99 213.54 67.53 210.64 68.79 207.95 C 71.41 202.62 71.01 196.50 70.48 190.76 C 68.19 191.77 67.72 194.46 66.59 196.44 M 445.64 212.33 C 446.51 213.03 447.40 215.11 448.74 214.19 C 449.26 210.76 449.59 207.28 451.03 204.08 C 446.55 200.64 445.19 194.98 441.95 190.62 C 439.58 197.82 441.18 206.24 445.64 212.33 M 45.18 200.11 C 43.39 204.78 44.23 210.02 45.28 214.78 C 47.33 213.38 49.60 212.35 51.98 211.64 C 53.84 212.25 55.73 212.82 57.61 213.40 C 57.86 208.10 54.68 203.45 51.33 199.65 C 49.87 197.61 46.01 197.39 45.18 200.11 M 460.64 199.56 C 457.23 203.28 454.40 207.89 454.15 213.05 C 456.15 212.69 458.15 212.26 460.11 211.69 C 462.43 212.45 464.65 213.51 466.81 214.66 C 467.47 209.95 468.53 204.88 466.78 200.29 C 465.94 197.55 462.20 197.46 460.64 199.56 M 20.35 200.36 C 21.76 206.63 25.77 212.40 31.45 215.50 C 33.68 216.55 36.40 217.90 38.82 216.69 C 39.01 214.71 37.60 212.96 37.54 210.99 C 37.78 209.36 38.13 207.76 38.59 206.18 C 32.16 205.40 26.42 202.35 20.35 200.36 M 473.30 206.12 C 474.60 209.54 474.40 213.20 472.60 216.39 C 474.02 216.93 475.53 217.48 477.04 216.85 C 484.54 214.73 489.84 207.70 491.58 200.32 C 485.51 202.34 479.76 205.40 473.30 206.12 M 71.92 213.39 C 69.67 216.80 67.08 219.96 64.27 222.93 C 65.83 226.73 66.94 230.69 67.59 234.75 C 72.24 228.80 74.53 221.12 73.32 213.60 C 72.97 213.55 72.27 213.44 71.92 213.39 M 438.42 215.89 C 437.70 222.70 440.28 229.52 444.39 234.86 C 444.89 230.75 446.01 226.75 447.68 222.97 C 444.73 220.01 442.32 216.58 439.73 213.33 C 438.35 213.38 438.64 214.94 438.42 215.89 M 48.86 218.10 C 47.36 222.95 48.28 228.18 49.66 232.96 C 50.87 231.26 51.91 229.17 54.02 228.43 C 56.00 228.07 58.00 228.51 59.97 228.68 C 59.66 225.75 59.92 222.53 58.23 219.96 C 56.53 216.82 51.54 215.48 48.86 218.10 M 455.23 218.12 C 452.15 220.69 452.14 225.05 451.86 228.72 C 454.05 228.52 456.36 227.89 458.51 228.65 C 460.16 229.65 461.15 231.40 462.42 232.80 C 463.63 228.30 464.24 223.52 463.36 218.90 C 461.87 215.74 457.61 216.49 455.23 218.12 M 25.45 218.99 C 28.27 227.45 34.97 237.03 44.90 236.64 C 43.13 232.59 42.19 228.26 42.55 223.83 C 36.41 224.74 30.21 222.93 25.45 218.99 M 485.95 219.12 C 481.51 223.21 475.29 224.64 469.40 223.80 C 469.87 228.28 468.62 232.58 467.10 236.73 C 471.28 236.90 475.23 235.08 478.19 232.21 C 481.81 228.62 485.23 224.32 485.95 219.12 M 101.95 300.00 C 98.42 309.07 100.57 319.18 104.19 327.87 C 107.77 336.00 114.39 343.70 123.54 345.30 C 119.09 338.18 115.69 330.41 113.34 322.36 C 110.10 310.01 110.43 296.40 116.09 284.79 C 109.87 288.07 104.28 293.21 101.95 300.00 M 395.75 284.91 C 405.42 304.32 399.65 327.69 388.33 345.08 C 396.63 344.14 402.72 337.33 406.52 330.40 C 410.44 322.60 412.55 313.64 411.31 304.93 C 409.96 296.16 403.74 288.59 395.75 284.91 M 42.04 296.34 C 34.81 296.23 26.86 296.45 20.84 301.00 C 27.70 301.35 34.52 302.44 41.11 304.43 C 49.25 306.70 56.72 310.75 64.42 314.14 C 63.95 309.27 64.58 304.41 66.01 299.75 C 58.19 297.72 50.15 296.18 42.04 296.34 M 445.87 299.83 C 447.51 304.47 447.98 309.40 447.54 314.29 C 461.07 307.20 475.69 301.41 491.16 301.00 C 485.37 296.80 477.92 296.19 471.00 296.34 C 462.50 296.12 454.03 297.52 445.87 299.83 M 131.34 312.34 C 127.27 318.21 127.82 325.76 128.72 332.49 C 131.16 343.98 136.62 355.56 146.59 362.35 C 163.10 374.11 182.51 381.06 202.00 386.09 C 206.55 387.12 211.41 388.53 216.02 387.11 C 218.72 383.68 217.75 378.52 216.12 374.78 C 211.96 373.23 207.47 373.17 203.18 372.24 C 192.70 370.19 182.28 367.56 172.34 363.65 C 162.65 358.79 152.89 353.54 145.05 345.92 C 135.58 336.10 134.38 321.24 136.58 308.40 C 134.36 308.99 132.37 310.23 131.34 312.34 M 375.08 308.76 C 378.02 322.24 375.75 338.37 364.84 347.83 C 357.32 354.36 348.50 359.19 339.63 363.62 C 331.10 367.03 322.14 369.32 313.20 371.37 C 307.46 372.76 301.49 373.02 295.84 374.75 C 294.03 378.03 294.10 381.93 294.73 385.53 C 295.37 387.27 297.38 387.73 299.06 387.69 C 304.90 387.81 310.51 385.87 316.10 384.42 C 332.79 379.73 349.20 373.30 363.64 363.59 C 370.39 359.07 375.89 352.71 379.04 345.19 C 382.76 336.47 385.48 326.52 382.82 317.12 C 381.43 313.62 379.57 308.76 375.08 308.76 M 36.20 336.62 C 58.89 333.69 83.72 332.45 104.16 344.54 C 94.06 333.24 79.60 324.43 63.99 325.16 C 53.64 325.22 43.97 330.06 36.20 336.62 M 407.65 344.65 C 416.87 339.26 427.31 335.93 438.00 335.31 C 450.54 333.71 463.17 335.17 475.65 336.62 C 467.93 330.05 458.29 325.24 447.98 325.16 C 432.31 324.40 417.74 333.25 407.65 344.65 M 81.88 344.87 C 70.50 346.38 59.44 351.03 50.87 358.74 C 56.29 358.23 61.58 356.72 67.03 356.47 C 79.82 355.51 92.82 356.83 105.00 360.90 C 127.51 368.27 147.01 381.99 167.42 393.57 C 179.76 399.89 192.91 405.82 207.02 406.08 C 209.42 405.76 212.23 405.86 214.09 404.04 C 216.89 401.34 217.46 396.67 215.78 393.24 C 214.72 391.03 211.97 391.66 210.02 391.45 C 195.98 390.77 181.55 389.29 168.77 383.02 C 153.10 375.76 139.27 365.21 124.41 356.50 C 111.94 348.37 96.90 343.19 81.88 344.87 M 413.12 345.67 C 404.25 347.62 395.71 351.11 388.11 356.10 C 371.93 365.56 356.96 377.25 339.59 384.58 C 326.41 390.24 311.85 390.87 297.74 391.76 C 292.69 395.43 295.46 405.86 302.14 405.70 C 313.36 406.66 324.36 403.01 334.43 398.39 C 344.64 394.10 353.98 388.08 363.41 382.33 C 382.05 371.20 401.60 360.18 423.42 357.09 C 435.97 355.14 448.69 356.50 461.08 358.79 C 448.25 347.41 429.99 342.07 413.12 345.67 M 253.05 349.03 C 249.00 349.95 245.45 353.61 245.68 357.94 C 245.64 381.29 245.68 404.65 245.66 428.01 C 245.53 430.75 246.74 433.44 248.87 435.17 C 251.58 437.69 255.57 436.96 258.94 436.92 C 263.72 436.53 266.74 431.46 266.38 426.97 C 266.35 403.99 266.47 381.00 266.31 358.03 C 266.47 351.39 258.95 347.29 253.05 349.03 M 227.64 357.81 C 224.09 358.84 220.85 362.05 221.25 365.99 C 221.25 384.34 221.27 402.69 221.24 421.04 C 221.16 423.14 221.60 425.40 223.22 426.89 C 226.63 430.31 232.03 430.42 236.43 429.23 C 239.96 428.19 242.51 424.78 242.23 421.06 C 242.18 402.33 242.36 383.60 242.14 364.87 C 241.54 358.04 233.15 356.32 227.64 357.81 M 275.71 357.96 C 272.67 358.96 269.83 361.51 269.82 364.91 C 269.68 383.28 269.84 401.66 269.74 420.03 C 269.73 422.26 269.77 424.80 271.40 426.53 C 274.53 430.07 279.80 430.36 284.14 429.47 C 287.49 428.62 290.82 425.72 290.53 421.99 C 290.55 403.30 290.51 384.61 290.55 365.93 C 290.73 363.66 289.82 361.39 288.08 359.92 C 284.73 356.99 279.81 356.94 275.71 357.96 M 93.98 377.93 C 87.52 383.15 84.67 391.87 85.78 399.99 C 89.59 396.33 91.41 390.78 96.25 388.16 C 100.22 386.46 104.62 385.04 108.98 385.92 C 115.32 387.05 121.28 389.82 126.60 393.41 C 138.94 401.16 151.41 409.02 165.26 413.79 C 176.85 418.20 188.89 421.27 200.97 424.01 C 205.87 424.73 211.23 426.31 215.94 424.03 C 218.83 419.99 218.15 412.74 213.07 410.72 C 197.65 409.49 182.43 405.29 168.61 398.35 C 155.99 392.63 143.49 386.57 131.70 379.26 C 126.98 376.29 122.68 372.29 117.06 371.13 C 108.84 369.18 99.94 372.04 93.98 377.93 M 387.43 374.37 C 371.52 385.71 353.54 393.59 335.90 401.80 C 324.74 406.17 313.06 409.58 301.05 410.40 C 297.59 410.28 294.37 413.50 294.48 416.96 C 294.43 419.59 294.17 423.56 297.25 424.61 C 301.75 425.99 306.50 424.70 311.01 423.98 C 323.14 421.22 335.23 418.13 346.87 413.69 C 360.67 408.94 373.07 401.07 385.37 393.37 C 390.70 389.78 396.68 387.00 403.04 385.89 C 407.21 385.09 411.37 386.43 415.21 387.96 C 420.35 390.45 422.23 396.28 426.19 400.02 C 426.96 393.14 425.32 385.66 420.51 380.49 C 416.60 376.30 411.81 372.56 406.11 371.27 C 399.82 369.66 392.82 370.68 387.43 374.37 Z" />
<path fill="#ffffff" opacity="1.00" d=" M 211.71 32.72 C 222.71 20.10 239.31 12.59 256.04 12.52 C 272.98 12.64 289.72 20.39 300.70 33.32 C 309.69 43.68 314.75 57.30 315.05 70.98 C 314.57 78.33 313.64 85.66 313.07 93.01 C 318.62 90.29 324.25 87.69 330.01 85.43 C 343.56 80.29 359.11 80.77 372.37 86.60 C 385.75 92.05 396.95 102.72 402.96 115.87 C 410.68 131.40 410.67 150.53 403.03 166.08 C 397.30 178.85 386.54 189.05 373.91 194.91 C 365.75 198.50 356.83 199.52 348.20 201.37 C 354.20 207.53 360.91 213.19 365.26 220.73 C 379.08 242.32 376.25 272.96 358.51 291.52 C 347.79 303.37 332.01 310.78 315.97 310.75 C 298.61 311.33 281.31 303.19 270.16 289.97 C 264.43 283.69 261.44 275.62 257.20 268.37 C 257.00 268.34 256.59 268.27 256.38 268.24 C 253.83 273.07 251.41 277.99 248.69 282.73 C 239.76 297.56 223.91 307.74 206.85 310.32 C 197.16 311.36 187.10 310.84 178.02 307.05 C 159.11 300.19 144.30 282.92 140.67 263.11 C 137.02 245.08 142.36 225.43 154.97 211.98 C 158.32 208.39 162.02 205.14 165.21 201.40 C 157.94 199.80 150.43 199.27 143.34 196.89 C 123.37 190.55 107.91 172.51 104.15 151.98 C 102.39 140.59 103.01 128.47 107.98 117.91 C 114.07 103.38 126.27 91.52 141.03 85.97 C 154.63 80.45 170.39 80.50 183.93 86.21 C 189.05 88.24 193.81 91.06 198.85 93.27 C 198.20 85.52 197.17 77.78 196.86 70.01 C 197.32 56.38 202.66 42.93 211.71 32.72 M 248.20 92.14 C 245.12 98.76 245.91 106.98 250.38 112.79 C 250.41 114.99 250.44 117.20 250.50 119.41 C 248.87 120.83 247.56 123.35 245.08 123.20 C 227.03 123.23 208.98 123.18 190.93 123.21 C 189.80 123.46 187.87 122.96 187.40 124.38 C 181.54 138.76 175.33 153.01 169.40 167.37 C 168.30 170.17 166.04 173.22 167.74 176.27 C 169.73 180.43 171.15 185.14 174.43 188.50 C 183.40 189.06 192.47 188.75 201.47 188.61 C 204.85 184.29 207.33 179.24 208.71 173.94 C 208.01 170.75 206.27 167.91 205.08 164.89 C 200.08 152.65 194.76 140.53 189.80 128.27 C 207.70 127.79 225.61 129.57 243.22 132.71 C 246.44 132.85 248.40 135.49 250.46 137.58 C 250.34 140.72 250.68 143.89 250.18 147.01 C 249.03 150.24 247.46 153.51 247.76 157.05 C 247.89 160.18 249.35 163.02 250.29 165.95 C 250.59 168.67 250.41 171.42 250.37 174.16 C 244.68 181.50 244.72 192.73 250.50 200.01 C 248.54 203.42 246.06 206.76 242.36 208.40 C 238.26 210.56 233.56 209.51 229.16 209.95 C 223.98 211.51 224.96 221.80 230.99 220.71 C 247.31 220.70 263.63 220.66 279.95 220.72 C 281.32 220.63 282.80 220.83 284.10 220.27 C 286.38 218.12 286.05 214.53 285.27 211.78 C 283.21 208.67 279.04 210.20 275.97 209.82 C 269.55 210.06 264.08 205.50 261.45 199.94 C 267.23 192.74 267.13 181.71 261.78 174.31 C 261.10 171.48 261.22 168.37 261.70 165.50 C 264.12 160.70 264.60 154.87 262.84 149.79 C 260.61 146.05 261.58 141.60 261.46 137.48 C 262.85 136.21 264.20 134.88 265.48 133.49 C 276.73 130.72 288.32 129.83 299.82 128.77 C 307.25 128.09 314.71 128.23 322.16 128.23 C 315.86 143.20 309.46 158.15 303.32 173.17 C 304.31 178.71 307.31 183.97 310.60 188.52 C 319.51 188.92 328.54 188.98 337.45 188.48 C 341.59 184.80 343.25 179.09 344.93 173.98 C 341.36 163.60 336.43 153.66 332.41 143.42 C 329.85 136.76 326.45 130.44 324.36 123.60 C 319.60 122.89 314.78 123.29 310.00 123.21 C 295.04 123.15 280.08 123.32 265.12 123.12 C 263.92 121.90 262.70 120.71 261.46 119.53 C 261.62 116.83 260.68 113.74 262.40 111.39 C 266.07 106.25 266.34 99.26 264.30 93.43 C 263.03 89.95 260.05 86.30 256.00 86.51 C 252.41 86.24 249.54 89.07 248.20 92.14 M 222.88 235.27 C 243.91 235.41 264.95 235.24 285.98 235.35 C 288.10 235.46 290.18 234.98 292.18 234.29 C 294.47 231.00 293.95 224.60 289.04 224.43 C 267.00 224.37 244.95 224.37 222.91 224.43 C 216.86 224.40 216.86 235.13 222.88 235.27 M 212.34 239.50 C 207.84 242.02 209.72 249.65 214.89 249.56 C 241.94 249.64 268.99 249.56 296.04 249.60 C 298.34 249.88 300.71 248.71 301.62 246.53 C 303.47 243.33 300.72 238.68 297.00 238.78 C 270.33 238.67 243.66 238.80 216.98 238.71 C 215.43 238.79 213.71 238.61 212.34 239.50 Z" />
<path fill="#ffffff" opacity="1.00" d=" M 169.25 173.43 C 174.94 159.76 180.53 146.04 186.59 132.54 C 186.80 146.18 186.73 159.84 186.63 173.49 C 180.84 173.41 175.05 173.48 169.25 173.43 Z" />
<path fill="#ffffff" opacity="1.00" d=" M 322.61 132.57 C 323.82 146.12 322.82 159.78 323.17 173.37 C 317.28 173.51 311.39 173.45 305.50 173.42 C 311.18 159.79 316.99 146.22 322.61 132.57 Z" />
<path fill="#ffffff" opacity="1.00" d=" M 188.83 132.83 C 192.56 139.30 194.79 146.48 197.84 153.27 C 200.85 159.91 203.48 166.70 206.28 173.43 C 200.42 173.46 194.56 173.48 188.69 173.41 C 188.79 159.88 188.52 146.35 188.83 132.83 Z" />
<path fill="#ffffff" opacity="1.00" d=" M 325.51 133.50 C 329.51 141.16 332.34 149.36 335.83 157.26 C 338.26 162.57 340.35 168.03 342.61 173.42 C 336.87 173.48 331.13 173.42 325.39 173.47 C 325.40 160.15 325.17 146.82 325.51 133.50 Z" />
</g>
<g id="#f4b900ff">
<path fill="#f4b900" opacity="1.00" d=" M 250.40 0.00 L 261.59 0.00 C 280.95 1.59 299.55 11.15 311.69 26.37 C 322.37 39.31 328.09 56.12 327.67 72.90 C 333.35 71.47 339.03 69.83 344.90 69.36 C 355.75 68.49 366.72 70.51 376.85 74.39 C 397.11 82.74 413.39 100.68 418.89 121.99 C 422.32 134.05 422.42 147.04 419.14 159.14 C 414.51 177.96 401.48 194.38 384.56 203.70 C 380.83 205.78 376.78 207.17 373.00 209.12 C 381.00 221.22 387.03 235.22 386.73 249.98 C 388.00 275.54 373.61 300.82 351.60 313.60 C 335.74 323.18 315.94 325.99 298.00 321.44 C 281.28 317.54 266.88 306.61 256.85 292.89 C 250.88 300.52 244.11 307.72 235.77 312.79 C 220.41 322.71 201.01 325.87 183.22 321.93 C 169.73 319.19 157.29 312.12 147.57 302.46 C 135.93 290.68 128.45 274.84 126.90 258.34 C 125.10 241.06 130.54 223.46 140.65 209.46 C 125.59 204.62 112.08 195.00 103.09 181.94 C 94.22 169.20 89.75 153.48 90.38 137.99 C 91.24 119.06 99.73 100.54 113.89 87.87 C 127.80 74.91 147.13 68.17 166.07 69.29 C 172.22 69.64 178.16 71.39 184.10 72.88 C 183.95 56.33 189.33 39.73 199.81 26.84 C 211.98 11.35 230.81 1.57 250.40 0.00 M 211.71 32.72 C 202.66 42.93 197.32 56.38 196.86 70.01 C 197.17 77.78 198.20 85.52 198.85 93.27 C 193.81 91.06 189.05 88.24 183.93 86.21 C 170.39 80.50 154.63 80.45 141.03 85.97 C 126.27 91.52 114.07 103.38 107.98 117.91 C 103.01 128.47 102.39 140.59 104.15 151.98 C 107.91 172.51 123.37 190.55 143.34 196.89 C 150.43 199.27 157.94 199.80 165.21 201.40 C 162.02 205.14 158.32 208.39 154.97 211.98 C 142.36 225.43 137.02 245.08 140.67 263.11 C 144.30 282.92 159.11 300.19 178.02 307.05 C 187.10 310.84 197.16 311.36 206.85 310.32 C 223.91 307.74 239.76 297.56 248.69 282.73 C 251.41 277.99 253.83 273.07 256.38 268.24 C 256.59 268.27 257.00 268.34 257.20 268.37 C 261.44 275.62 264.43 283.69 270.16 289.97 C 281.31 303.19 298.61 311.33 315.97 310.75 C 332.01 310.78 347.79 303.37 358.51 291.52 C 376.25 272.96 379.08 242.32 365.26 220.73 C 360.91 213.19 354.20 207.53 348.20 201.37 C 356.83 199.52 365.75 198.50 373.91 194.91 C 386.54 189.05 397.30 178.85 403.03 166.08 C 410.67 150.53 410.68 131.40 402.96 115.87 C 396.95 102.72 385.75 92.05 372.37 86.60 C 359.11 80.77 343.56 80.29 330.01 85.43 C 324.25 87.69 318.62 90.29 313.07 93.01 C 313.64 85.66 314.57 78.33 315.05 70.98 C 314.75 57.30 309.69 43.68 300.70 33.32 C 289.72 20.39 272.98 12.64 256.04 12.52 C 239.31 12.59 222.71 20.10 211.71 32.72 Z" />
<path fill="#f4b900" opacity="1.00" d=" M 248.20 92.14 C 249.54 89.07 252.41 86.24 256.00 86.51 C 260.05 86.30 263.03 89.95 264.30 93.43 C 266.34 99.26 266.07 106.25 262.40 111.39 C 260.68 113.74 261.62 116.83 261.46 119.53 C 262.70 120.71 263.92 121.90 265.12 123.12 C 280.08 123.32 295.04 123.15 310.00 123.21 C 314.78 123.29 319.60 122.89 324.36 123.60 C 326.45 130.44 329.85 136.76 332.41 143.42 C 336.43 153.66 341.36 163.60 344.93 173.98 C 343.25 179.09 341.59 184.80 337.45 188.48 C 328.54 188.98 319.51 188.92 310.60 188.52 C 307.31 183.97 304.31 178.71 303.32 173.17 C 309.46 158.15 315.86 143.20 322.16 128.23 C 314.71 128.23 307.25 128.09 299.82 128.77 C 288.32 129.83 276.73 130.72 265.48 133.49 C 264.20 134.88 262.85 136.21 261.46 137.48 C 261.58 141.60 260.61 146.05 262.84 149.79 C 264.60 154.87 264.12 160.70 261.70 165.50 C 261.22 168.37 261.10 171.48 261.78 174.31 C 267.13 181.71 267.23 192.74 261.45 199.94 C 264.08 205.50 269.55 210.06 275.97 209.82 C 279.04 210.20 283.21 208.67 285.27 211.78 C 286.05 214.53 286.38 218.12 284.10 220.27 C 282.80 220.83 281.32 220.63 279.95 220.72 C 263.63 220.66 247.31 220.70 230.99 220.71 C 224.96 221.80 223.98 211.51 229.16 209.95 C 233.56 209.51 238.26 210.56 242.36 208.40 C 246.06 206.76 248.54 203.42 250.50 200.01 C 244.72 192.73 244.68 181.50 250.37 174.16 C 250.41 171.42 250.59 168.67 250.29 165.95 C 249.35 163.02 247.89 160.18 247.76 157.05 C 247.46 153.51 249.03 150.24 250.18 147.01 C 250.68 143.89 250.34 140.72 250.46 137.58 C 248.40 135.49 246.44 132.85 243.22 132.71 C 225.61 129.57 207.70 127.79 189.80 128.27 C 194.76 140.53 200.08 152.65 205.08 164.89 C 206.27 167.91 208.01 170.75 208.71 173.94 C 207.33 179.24 204.85 184.29 201.47 188.61 C 192.47 188.75 183.40 189.06 174.43 188.50 C 171.15 185.14 169.73 180.43 167.74 176.27 C 166.04 173.22 168.30 170.17 169.40 167.37 C 175.33 153.01 181.54 138.76 187.40 124.38 C 187.87 122.96 189.80 123.46 190.93 123.21 C 208.98 123.18 227.03 123.23 245.08 123.20 C 247.56 123.35 248.87 120.83 250.50 119.41 C 250.44 117.20 250.41 114.99 250.38 112.79 C 245.91 106.98 245.12 98.76 248.20 92.14 M 169.25 173.43 C 175.05 173.48 180.84 173.41 186.63 173.49 C 186.73 159.84 186.80 146.18 186.59 132.54 C 180.53 146.04 174.94 159.76 169.25 173.43 M 322.61 132.57 C 316.99 146.22 311.18 159.79 305.50 173.42 C 311.39 173.45 317.28 173.51 323.17 173.37 C 322.82 159.78 323.82 146.12 322.61 132.57 M 188.83 132.83 C 188.52 146.35 188.79 159.88 188.69 173.41 C 194.56 173.48 200.42 173.46 206.28 173.43 C 203.48 166.70 200.85 159.91 197.84 153.27 C 194.79 146.48 192.56 139.30 188.83 132.83 M 325.51 133.50 C 325.17 146.82 325.40 160.15 325.39 173.47 C 331.13 173.42 336.87 173.48 342.61 173.42 C 340.35 168.03 338.26 162.57 335.83 157.26 C 332.34 149.36 329.51 141.16 325.51 133.50 Z" />
<path fill="#f4b900" opacity="1.00" d=" M 42.60 125.57 C 44.98 122.56 47.18 118.91 51.04 117.69 C 52.86 123.85 53.66 130.70 51.26 136.82 C 49.63 136.17 48.03 135.43 46.37 134.83 C 44.02 133.97 41.33 136.38 39.20 135.07 C 38.26 131.51 40.84 128.40 42.60 125.57 Z" />
<path fill="#f4b900" opacity="1.00" d=" M 460.87 117.64 C 464.26 118.76 466.33 121.86 468.50 124.49 C 470.80 127.75 473.85 131.48 472.52 135.75 C 470.42 135.38 468.38 134.65 466.24 134.66 C 464.33 135.21 462.55 136.12 460.72 136.85 C 458.08 130.77 459.06 123.81 460.87 117.64 Z" />
<path fill="#f4b900" opacity="1.00" d=" M 22.70 134.04 C 27.34 137.95 30.96 143.14 36.58 145.80 C 34.97 149.18 33.87 152.85 34.72 156.62 C 26.58 152.49 21.97 142.96 22.70 134.04 Z" />
<path fill="#f4b900" opacity="1.00" d=" M 52.17 143.46 C 57.69 141.93 60.84 136.00 66.56 135.21 C 67.26 142.27 64.74 150.64 57.92 153.89 C 56.39 154.98 53.43 154.23 54.36 151.96 C 54.99 148.87 54.01 145.93 52.17 143.46 Z" />
<path fill="#f4b900" opacity="1.00" d=" M 445.48 135.13 C 451.06 136.32 454.33 141.83 459.78 143.50 C 456.80 146.43 457.39 150.63 457.45 154.42 C 453.47 154.62 450.24 151.86 448.24 148.68 C 445.73 144.68 444.80 139.80 445.48 135.13 Z" />
<path fill="#f4b900" opacity="1.00" d=" M 475.26 145.80 C 480.94 143.19 484.60 138.02 489.23 134.07 C 489.78 143.10 485.27 153.09 476.57 156.71 C 478.67 153.12 476.83 149.18 475.26 145.80 Z" />
<path fill="#f4b900" opacity="1.00" d=" M 41.65 143.85 C 42.62 141.70 46.27 141.52 47.33 143.69 C 50.02 147.84 51.62 152.85 51.32 157.83 C 49.34 156.35 47.69 154.02 45.04 153.77 C 42.53 153.73 40.57 155.51 38.55 156.73 C 36.72 152.32 39.40 147.60 41.65 143.85 Z" />
<path fill="#f4b900" opacity="1.00" d=" M 464.68 143.52 C 465.50 141.73 467.70 142.47 469.26 142.29 C 471.90 146.50 475.21 151.61 473.34 156.73 C 471.35 155.48 469.40 153.83 466.93 153.72 C 464.27 154.00 462.61 156.35 460.64 157.87 C 460.18 152.80 462.01 147.76 464.68 143.52 Z" />
<path fill="#f4b900" opacity="1.00" d=" M 53.17 162.65 C 59.33 161.94 62.15 155.67 67.14 152.86 C 67.85 159.08 65.60 165.24 62.61 170.60 C 60.89 173.29 59.18 176.54 55.80 177.34 C 55.55 172.38 56.91 166.68 53.17 162.65 Z" />
<path fill="#f4b900" opacity="1.00" d=" M 444.91 152.88 C 449.87 155.67 452.62 162.14 458.82 162.53 C 455.15 166.53 455.91 172.20 456.35 177.15 C 452.46 176.92 450.83 172.86 448.96 170.05 C 446.37 164.79 443.79 158.86 444.91 152.88 Z" />
<path fill="#f4b900" opacity="1.00" d=" M 20.44 155.69 C 23.69 158.05 25.78 161.65 29.11 163.92 C 31.08 165.30 33.37 166.09 35.64 166.83 C 34.57 170.21 33.54 173.64 33.49 177.22 C 24.33 174.68 19.20 164.78 20.44 155.69 Z" />
<path fill="#f4b900" opacity="1.00" d=" M 476.26 166.84 C 482.89 165.48 487.01 159.99 491.41 155.39 C 492.84 164.54 487.65 174.57 478.49 177.24 C 478.46 173.65 477.31 170.23 476.26 166.84 Z" />
<path fill="#f4b900" opacity="1.00" d=" M 38.11 176.04 C 37.89 169.61 39.95 162.40 44.99 158.13 C 50.21 163.09 51.43 170.83 52.18 177.68 C 50.26 176.35 48.61 174.54 46.40 173.70 C 43.40 173.04 40.73 174.91 38.11 176.04 Z" />
<path fill="#f4b900" opacity="1.00" d=" M 459.87 177.76 C 460.34 170.85 461.73 163.05 466.98 158.08 C 471.95 162.42 473.85 169.58 473.79 175.98 C 471.26 174.98 468.78 173.18 465.93 173.61 C 463.47 174.22 461.79 176.28 459.87 177.76 Z" />
<path fill="#f4b900" opacity="1.00" d=" M 66.31 172.17 C 66.56 172.21 67.07 172.30 67.32 172.34 C 68.36 179.08 68.24 186.58 64.30 192.43 C 63.26 194.09 61.38 194.87 59.77 195.84 C 57.94 193.56 58.71 190.57 58.23 187.91 C 57.78 186.04 56.94 184.29 56.16 182.53 C 61.32 181.28 64.48 176.85 66.31 172.17 Z" />
<path fill="#f4b900" opacity="1.00" d=" M 444.59 171.81 C 446.86 173.22 447.16 176.19 448.87 178.11 C 450.53 180.41 453.19 181.57 455.76 182.55 C 453.02 186.56 454.06 191.56 452.30 195.84 C 449.17 194.75 446.93 192.21 445.84 189.13 C 443.51 183.68 443.71 177.56 444.59 171.81 Z" />
<path fill="#f4b900" opacity="1.00" d=" M 18.41 176.39 C 24.28 179.41 28.75 185.33 35.76 185.87 C 33.46 190.13 34.67 194.80 36.92 198.77 C 25.78 199.13 16.63 187.10 18.41 176.39 Z" />
<path fill="#f4b900" opacity="1.00" d=" M 476.16 185.85 C 482.66 185.35 487.08 180.23 492.25 176.97 C 494.26 176.28 493.71 178.82 493.72 179.94 C 493.29 189.47 484.86 199.12 474.96 198.80 C 475.78 196.87 476.73 195.01 477.41 193.02 C 478.02 190.55 476.92 188.15 476.16 185.85 Z" />
<path fill="#f4b900" opacity="1.00" d=" M 44.36 178.46 C 46.85 177.91 49.00 179.70 50.38 181.57 C 53.09 185.45 55.01 190.09 54.68 194.91 C 52.19 194.65 50.32 192.84 47.98 192.19 C 44.91 192.41 43.96 195.80 42.86 198.12 C 41.20 197.47 41.17 195.52 40.79 194.06 C 39.97 188.72 40.48 182.57 44.36 178.46 Z" />
<path fill="#f4b900" opacity="1.00" d=" M 463.00 179.94 C 464.30 178.55 467.24 177.42 468.45 179.50 C 471.60 183.70 472.01 189.29 471.11 194.31 C 470.81 195.76 470.42 197.25 469.26 198.27 C 467.94 196.04 467.04 192.42 463.95 192.24 C 461.60 192.87 459.67 194.54 457.26 195.00 C 456.83 189.47 459.18 183.88 463.00 179.94 Z" />
<path fill="#f4b900" opacity="1.00" d=" M 66.59 196.44 C 67.72 194.46 68.19 191.77 70.48 190.76 C 71.01 196.50 71.41 202.62 68.79 207.95 C 67.53 210.64 65.99 213.54 63.03 214.64 C 63.08 211.00 62.23 207.47 60.81 204.14 C 63.28 202.03 65.30 199.43 66.59 196.44 Z" />
<path fill="#f4b900" opacity="1.00" d=" M 445.64 212.33 C 441.18 206.24 439.58 197.82 441.95 190.62 C 445.19 194.98 446.55 200.64 451.03 204.08 C 449.59 207.28 449.26 210.76 448.74 214.19 C 447.40 215.11 446.51 213.03 445.64 212.33 Z" />
<path fill="#f4b900" opacity="1.00" d=" M 45.18 200.11 C 46.01 197.39 49.87 197.61 51.33 199.65 C 54.68 203.45 57.86 208.10 57.61 213.40 C 55.73 212.82 53.84 212.25 51.98 211.64 C 49.60 212.35 47.33 213.38 45.28 214.78 C 44.23 210.02 43.39 204.78 45.18 200.11 Z" />
<path fill="#f4b900" opacity="1.00" d=" M 460.64 199.56 C 462.20 197.46 465.94 197.55 466.78 200.29 C 468.53 204.88 467.47 209.95 466.81 214.66 C 464.65 213.51 462.43 212.45 460.11 211.69 C 458.15 212.26 456.15 212.69 454.15 213.05 C 454.40 207.89 457.23 203.28 460.64 199.56 Z" />
<path fill="#f4b900" opacity="1.00" d=" M 20.35 200.36 C 26.42 202.35 32.16 205.40 38.59 206.18 C 38.13 207.76 37.78 209.36 37.54 210.99 C 37.60 212.96 39.01 214.71 38.82 216.69 C 36.40 217.90 33.68 216.55 31.45 215.50 C 25.77 212.40 21.76 206.63 20.35 200.36 Z" />
<path fill="#f4b900" opacity="1.00" d=" M 473.30 206.12 C 479.76 205.40 485.51 202.34 491.58 200.32 C 489.84 207.70 484.54 214.73 477.04 216.85 C 475.53 217.48 474.02 216.93 472.60 216.39 C 474.40 213.20 474.60 209.54 473.30 206.12 Z" />
<path fill="#f4b900" opacity="1.00" d=" M 71.92 213.39 C 72.27 213.44 72.97 213.55 73.32 213.60 C 74.53 221.12 72.24 228.80 67.59 234.75 C 66.94 230.69 65.83 226.73 64.27 222.93 C 67.08 219.96 69.67 216.80 71.92 213.39 Z" />
<path fill="#f4b900" opacity="1.00" d=" M 438.42 215.89 C 438.64 214.94 438.35 213.38 439.73 213.33 C 442.32 216.58 444.73 220.01 447.68 222.97 C 446.01 226.75 444.89 230.75 444.39 234.86 C 440.28 229.52 437.70 222.70 438.42 215.89 Z" />
<path fill="#f4b900" opacity="1.00" d=" M 48.86 218.10 C 51.54 215.48 56.53 216.82 58.23 219.96 C 59.92 222.53 59.66 225.75 59.97 228.68 C 58.00 228.51 56.00 228.07 54.02 228.43 C 51.91 229.17 50.87 231.26 49.66 232.96 C 48.28 228.18 47.36 222.95 48.86 218.10 Z" />
<path fill="#f4b900" opacity="1.00" d=" M 455.23 218.12 C 457.61 216.49 461.87 215.74 463.36 218.90 C 464.24 223.52 463.63 228.30 462.42 232.80 C 461.15 231.40 460.16 229.65 458.51 228.65 C 456.36 227.89 454.05 228.52 451.86 228.72 C 452.14 225.05 452.15 220.69 455.23 218.12 Z" />
<path fill="#f4b900" opacity="1.00" d=" M 25.45 218.99 C 30.21 222.93 36.41 224.74 42.55 223.83 C 42.19 228.26 43.13 232.59 44.90 236.64 C 34.97 237.03 28.27 227.45 25.45 218.99 Z" />
<path fill="#f4b900" opacity="1.00" d=" M 485.95 219.12 C 485.23 224.32 481.81 228.62 478.19 232.21 C 475.23 235.08 471.28 236.90 467.10 236.73 C 468.62 232.58 469.87 228.28 469.40 223.80 C 475.29 224.64 481.51 223.21 485.95 219.12 Z" />
<path fill="#f4b900" opacity="1.00" d=" M 222.88 235.27 C 216.86 235.13 216.86 224.40 222.91 224.43 C 244.95 224.37 267.00 224.37 289.04 224.43 C 293.95 224.60 294.47 231.00 292.18 234.29 C 290.18 234.98 288.10 235.46 285.98 235.35 C 264.95 235.24 243.91 235.41 222.88 235.27 Z" />
<path fill="#f4b900" opacity="1.00" d=" M 66.23 244.69 C 69.52 236.47 76.17 230.29 83.64 225.83 C 76.95 235.43 74.86 247.42 75.40 258.92 C 75.79 265.59 76.42 272.40 79.00 278.63 C 81.18 277.32 83.02 275.56 84.70 273.68 C 87.83 270.26 91.56 267.49 95.40 264.93 C 93.38 270.81 91.13 276.66 89.99 282.80 C 87.47 294.87 88.06 307.36 90.08 319.46 C 85.90 316.49 80.69 315.84 76.11 313.89 C 73.03 305.11 76.42 295.70 77.93 286.91 C 73.99 285.73 70.05 284.54 66.13 283.31 C 67.84 284.94 69.54 286.59 71.23 288.25 C 68.89 289.64 66.52 290.96 64.11 292.21 C 59.66 289.10 54.15 288.68 48.90 288.62 C 39.97 280.13 29.90 272.84 19.00 267.09 C 16.68 265.88 14.23 264.96 11.73 264.20 C 11.61 263.78 11.49 263.37 11.39 262.96 C 13.58 263.47 15.79 263.97 18.02 264.28 C 34.56 266.29 50.87 271.93 64.40 281.79 C 62.95 277.81 61.42 273.86 59.90 269.92 C 56.47 269.37 52.21 270.25 49.76 267.23 C 36.70 253.38 18.96 243.66 0.00 241.19 L 0.00 240.04 L 0.01 240.86 C 6.79 237.54 14.55 236.63 21.96 237.94 C 33.02 239.86 43.57 244.30 52.92 250.48 C 51.86 244.79 51.22 238.91 52.72 233.23 C 54.31 233.51 56.14 233.37 57.39 234.57 C 60.86 237.44 63.57 241.09 66.23 244.69 Z" />
<path fill="#f4b900" opacity="1.00" d=" M 428.21 225.71 C 435.54 230.24 442.22 236.25 445.52 244.41 C 449.60 240.30 452.55 233.86 458.89 233.01 C 460.95 238.67 459.93 244.72 458.96 250.49 C 467.50 244.78 477.09 240.69 487.12 238.46 C 495.38 236.63 504.45 236.87 512.00 241.05 L 512.00 241.35 C 492.01 243.49 473.60 254.49 460.19 269.20 C 457.48 269.42 454.77 269.63 452.06 269.83 C 450.43 273.78 448.95 277.79 447.54 281.83 C 462.74 270.62 481.53 264.94 500.23 263.67 C 486.98 269.36 474.94 277.62 464.34 287.36 C 461.98 290.07 458.16 288.91 455.04 289.38 C 452.36 289.42 450.08 290.97 447.81 292.19 C 445.47 291.01 443.15 289.78 440.84 288.54 C 442.41 286.73 444.05 284.97 445.75 283.28 C 441.90 284.60 437.90 285.47 434.16 287.07 C 435.27 295.19 437.99 303.34 436.56 311.61 C 436.25 312.67 436.07 314.26 434.69 314.43 C 430.27 315.72 425.72 316.86 421.84 319.46 C 423.49 309.09 424.43 298.49 422.79 288.05 C 421.81 280.12 419.18 272.53 416.57 265.01 C 420.83 267.79 424.83 270.99 428.22 274.80 C 429.58 276.05 430.70 278.08 432.81 278.01 C 434.86 275.10 434.96 271.40 435.59 268.02 C 437.61 253.70 436.77 237.92 428.21 225.71 Z" />
<path fill="#f4b900" opacity="1.00" d=" M 212.34 239.50 C 213.71 238.61 215.43 238.79 216.98 238.71 C 243.66 238.80 270.33 238.67 297.00 238.78 C 300.72 238.68 303.47 243.33 301.62 246.53 C 300.71 248.71 298.34 249.88 296.04 249.60 C 268.99 249.56 241.94 249.64 214.89 249.56 C 209.72 249.65 207.84 242.02 212.34 239.50 Z" />
<path fill="#f4b900" opacity="1.00" d=" M 101.95 300.00 C 104.28 293.21 109.87 288.07 116.09 284.79 C 110.43 296.40 110.10 310.01 113.34 322.36 C 115.69 330.41 119.09 338.18 123.54 345.30 C 114.39 343.70 107.77 336.00 104.19 327.87 C 100.57 319.18 98.42 309.07 101.95 300.00 Z" />
<path fill="#f4b900" opacity="1.00" d=" M 395.75 284.91 C 403.74 288.59 409.96 296.16 411.31 304.93 C 412.55 313.64 410.44 322.60 406.52 330.40 C 402.72 337.33 396.63 344.14 388.33 345.08 C 399.65 327.69 405.42 304.32 395.75 284.91 Z" />
<path fill="#f4b900" opacity="1.00" d=" M 42.04 296.34 C 50.15 296.18 58.19 297.72 66.01 299.75 C 64.58 304.41 63.95 309.27 64.42 314.14 C 56.72 310.75 49.25 306.70 41.11 304.43 C 34.52 302.44 27.70 301.35 20.84 301.00 C 26.86 296.45 34.81 296.23 42.04 296.34 Z" />
<path fill="#f4b900" opacity="1.00" d=" M 445.87 299.83 C 454.03 297.52 462.50 296.12 471.00 296.34 C 477.92 296.19 485.37 296.80 491.16 301.00 C 475.69 301.41 461.07 307.20 447.54 314.29 C 447.98 309.40 447.51 304.47 445.87 299.83 Z" />
<path fill="#f4b900" opacity="1.00" d=" M 131.34 312.34 C 132.37 310.23 134.36 308.99 136.58 308.40 C 134.38 321.24 135.58 336.10 145.05 345.92 C 152.89 353.54 162.65 358.79 172.34 363.65 C 182.28 367.56 192.70 370.19 203.18 372.24 C 207.47 373.17 211.96 373.23 216.12 374.78 C 217.75 378.52 218.72 383.68 216.02 387.11 C 211.41 388.53 206.55 387.12 202.00 386.09 C 182.51 381.06 163.10 374.11 146.59 362.35 C 136.62 355.56 131.16 343.98 128.72 332.49 C 127.82 325.76 127.27 318.21 131.34 312.34 Z" />
<path fill="#f4b900" opacity="1.00" d=" M 375.08 308.76 C 379.57 308.76 381.43 313.62 382.82 317.12 C 385.48 326.52 382.76 336.47 379.04 345.19 C 375.89 352.71 370.39 359.07 363.64 363.59 C 349.20 373.30 332.79 379.73 316.10 384.42 C 310.51 385.87 304.90 387.81 299.06 387.69 C 297.38 387.73 295.37 387.27 294.73 385.53 C 294.10 381.93 294.03 378.03 295.84 374.75 C 301.49 373.02 307.46 372.76 313.20 371.37 C 322.14 369.32 331.10 367.03 339.63 363.62 C 348.50 359.19 357.32 354.36 364.84 347.83 C 375.75 338.37 378.02 322.24 375.08 308.76 Z" />
<path fill="#f4b900" opacity="1.00" d=" M 36.20 336.62 C 43.97 330.06 53.64 325.22 63.99 325.16 C 79.60 324.43 94.06 333.24 104.16 344.54 C 83.72 332.45 58.89 333.69 36.20 336.62 Z" />
<path fill="#f4b900" opacity="1.00" d=" M 407.65 344.65 C 417.74 333.25 432.31 324.40 447.98 325.16 C 458.29 325.24 467.93 330.05 475.65 336.62 C 463.17 335.17 450.54 333.71 438.00 335.31 C 427.31 335.93 416.87 339.26 407.65 344.65 Z" />
<path fill="#f4b900" opacity="1.00" d=" M 81.88 344.87 C 96.90 343.19 111.94 348.37 124.41 356.50 C 139.27 365.21 153.10 375.76 168.77 383.02 C 181.55 389.29 195.98 390.77 210.02 391.45 C 211.97 391.66 214.72 391.03 215.78 393.24 C 217.46 396.67 216.89 401.34 214.09 404.04 C 212.23 405.86 209.42 405.76 207.02 406.08 C 192.91 405.82 179.76 399.89 167.42 393.57 C 147.01 381.99 127.51 368.27 105.00 360.90 C 92.82 356.83 79.82 355.51 67.03 356.47 C 61.58 356.72 56.29 358.23 50.87 358.74 C 59.44 351.03 70.50 346.38 81.88 344.87 Z" />
<path fill="#f4b900" opacity="1.00" d=" M 413.12 345.67 C 429.99 342.07 448.25 347.41 461.08 358.79 C 448.69 356.50 435.97 355.14 423.42 357.09 C 401.60 360.18 382.05 371.20 363.41 382.33 C 353.98 388.08 344.64 394.10 334.43 398.39 C 324.36 403.01 313.36 406.66 302.14 405.70 C 295.46 405.86 292.69 395.43 297.74 391.76 C 311.85 390.87 326.41 390.24 339.59 384.58 C 356.96 377.25 371.93 365.56 388.11 356.10 C 395.71 351.11 404.25 347.62 413.12 345.67 Z" />
<path fill="#f4b900" opacity="1.00" d=" M 253.05 349.03 C 258.95 347.29 266.47 351.39 266.31 358.03 C 266.47 381.00 266.35 403.99 266.38 426.97 C 266.74 431.46 263.72 436.53 258.94 436.92 C 255.57 436.96 251.58 437.69 248.87 435.17 C 246.74 433.44 245.53 430.75 245.66 428.01 C 245.68 404.65 245.64 381.29 245.68 357.94 C 245.45 353.61 249.00 349.95 253.05 349.03 Z" />
<path fill="#f4b900" opacity="1.00" d=" M 227.64 357.81 C 233.15 356.32 241.54 358.04 242.14 364.87 C 242.36 383.60 242.18 402.33 242.23 421.06 C 242.51 424.78 239.96 428.19 236.43 429.23 C 232.03 430.42 226.63 430.31 223.22 426.89 C 221.60 425.40 221.16 423.14 221.24 421.04 C 221.27 402.69 221.25 384.34 221.25 365.99 C 220.85 362.05 224.09 358.84 227.64 357.81 Z" />
<path fill="#f4b900" opacity="1.00" d=" M 275.71 357.96 C 279.81 356.94 284.73 356.99 288.08 359.92 C 289.82 361.39 290.73 363.66 290.55 365.93 C 290.51 384.61 290.55 403.30 290.53 421.99 C 290.82 425.72 287.49 428.62 284.14 429.47 C 279.80 430.36 274.53 430.07 271.40 426.53 C 269.77 424.80 269.73 422.26 269.74 420.03 C 269.84 401.66 269.68 383.28 269.82 364.91 C 269.83 361.51 272.67 358.96 275.71 357.96 Z" />
<path fill="#f4b900" opacity="1.00" d=" M 93.98 377.93 C 99.94 372.04 108.84 369.18 117.06 371.13 C 122.68 372.29 126.98 376.29 131.70 379.26 C 143.49 386.57 155.99 392.63 168.61 398.35 C 182.43 405.29 197.65 409.49 213.07 410.72 C 218.15 412.74 218.83 419.99 215.94 424.03 C 211.23 426.31 205.87 424.73 200.97 424.01 C 188.89 421.27 176.85 418.20 165.26 413.79 C 151.41 409.02 138.94 401.16 126.60 393.41 C 121.28 389.82 115.32 387.05 108.98 385.92 C 104.62 385.04 100.22 386.46 96.25 388.16 C 91.41 390.78 89.59 396.33 85.78 399.99 C 84.67 391.87 87.52 383.15 93.98 377.93 Z" />
<path fill="#f4b900" opacity="1.00" d=" M 387.43 374.37 C 392.82 370.68 399.82 369.66 406.11 371.27 C 411.81 372.56 416.60 376.30 420.51 380.49 C 425.32 385.66 426.96 393.14 426.19 400.02 C 422.23 396.28 420.35 390.45 415.21 387.96 C 411.37 386.43 407.21 385.09 403.04 385.89 C 396.68 387.00 390.70 389.78 385.37 393.37 C 373.07 401.07 360.67 408.94 346.87 413.69 C 335.23 418.13 323.14 421.22 311.01 423.98 C 306.50 424.70 301.75 425.99 297.25 424.61 C 294.17 423.56 294.43 419.59 294.48 416.96 C 294.37 413.50 297.59 410.28 301.05 410.40 C 313.06 409.58 324.74 406.17 335.90 401.80 C 353.54 393.59 371.52 385.71 387.43 374.37 Z" />
</g>
</svg>
